<svg xmlns="http://www.w3.org/2000/svg" xmlns:xlink="http://www.w3.org/1999/xlink" xmlns:lucid="lucid" width="1100" height="1054"><g transform="translate(-174 -216)" lucid:page-tab-id=".Q4MUjXso07N"><path d="M0 0h1920v1760H0z" fill="#fff"/><path d="M402.78 265c0-2.76 2.24-5 5-5H1195c2.76 0 5 2.24 5 5v931.43c0 2.76-2.24 5-5 5H407.78c-2.76 0-5-2.24-5-5z" stroke="#614f36" fill="#fffbf3"/><use xlink:href="#a" transform="matrix(1,0,0,1,410.7771404371331,268) translate(306.679012345679 15.11111111111111)"/><use xlink:href="#b" transform="matrix(1,0,0,1,410.7771404371331,268) translate(401.43209876543204 15.11111111111111)"/><use xlink:href="#c" transform="matrix(1,0,0,1,410.7771404371331,268) translate(434.6419753086419 15.11111111111111)"/><path d="M279.75 639.75c0 10.9-8.84 19.75-19.75 19.75-10.9 0-19.75-8.84-19.75-19.75 0-10.9 8.84-19.75 19.75-19.75 10.9 0 19.75 8.84 19.75 19.75z" stroke="#614f36" fill="#fff"/><path d="M260 659.5v50.3c0 2.76 1.2 6.9 2.67 9.22L300 778m-40-63.2L220 778m0-98.75h80" stroke="#614f36" fill="none"/><path d="M220 625c0-2.76 2.24-5 5-5h70c2.76 0 5 2.24 5 5v170c0 2.76-2.24 5-5 5h-70c-2.76 0-5-2.24-5-5z" fill="none"/><use xlink:href="#d" transform="matrix(1,0,0,1,140,778) translate(99.28395061728395 14.888888888888888)"/><path d="M262.46 716.56l176.9-308.75M262.47 716.54l-1.75 3.05" stroke="#614f36" fill="none"/><path d="M439.6 407.4l-.03.55-.65-.38.82-1.43z" fill="#614f36"/><path d="M1120 530c0 33.14-53.73 60-120 60-66.27 0-120-26.86-120-60s53.73-60 120-60c66.27 0 120 26.86 120 60z" stroke="#333" fill="#fff"/><use xlink:href="#e" transform="matrix(1,0,0,1,916,493.9989633254834) translate(21.525 28.799999999999997)"/><use xlink:href="#f" transform="matrix(1,0,0,1,916,493.9989633254834) translate(31.099999999999994 50.4)"/><use xlink:href="#g" transform="matrix(1,0,0,1,916,493.9989633254834) translate(88 50.4)"/><path d="M680 410c0 33.14-53.73 60-120 60-66.27 0-120-26.86-120-60s53.73-60 120-60c66.27 0 120 26.86 120 60z" stroke="#333" fill="#fff"/><use xlink:href="#h" transform="matrix(1,0,0,1,476,373.9989633254834) translate(32.075 39.6)"/><use xlink:href="#g" transform="matrix(1,0,0,1,476,373.9989633254834) translate(87.025 39.6)"/><path d="M1120 380c0 33.14-53.73 60-120 60-66.27 0-120-26.86-120-60s53.73-60 120-60c66.27 0 120 26.86 120 60z" stroke="#333" fill="#fff"/><use xlink:href="#e" transform="matrix(1,0,0,1,916,344) translate(21.525 28.799999999999997)"/><use xlink:href="#i" transform="matrix(1,0,0,1,916,344) translate(33.55 50.4)"/><use xlink:href="#g" transform="matrix(1,0,0,1,916,344) translate(85.55 50.4)"/><path d="M879 380h-5.08m-5.08 0h-10.16m-5.08 0h-10.17m-5.08 0H828.2m-5.1 0h-10.15m-5.08 0H797.7m-5.08 0h-10.16m-5.08 0h-10.16m-5.08 0h-10.16m-5.08 0h-10.17m-5.08 0H721.5m-5.1 0h-10.15m-5.08 0H691m-5.07 0h-10.17m-5.08 0h-5.08" stroke="#614f36" fill="none"/><path d="M879.5 380v.5h-.5v-1h.5z" fill="#614f36"/><path d="M682.9 369.82L665.67 380l17.2 10.18" stroke="#614f36" fill="none"/><use xlink:href="#j" transform="matrix(1,0,0,1,720.2448107797564,354.66666666666663) translate(0 14.222222222222223)"/><path d="M879 529.88l-4.98-1.2m-5-1.18l-9.97-2.38m-5-1.2l-9.97-2.38m-5-1.2l-9.98-2.37m-5-1.2l-9.97-2.37m-5-1.2l-9.97-2.38m-5-1.2l-9.97-2.37m-5-1.2l-10-2.37m-4.98-1.2l-9.98-2.38m-5-1.2l-9.97-2.37m-5-1.2l-9.97-2.38m-5-1.2l-9.98-2.37m-5-1.2l-9.97-2.37m-5-1.18l-9.97-2.4m-5-1.18l-9.97-2.38m-5-1.2l-9.97-2.37m-5-1.2l-9.97-2.4m-5-1.18l-9.97-2.38m-5-1.2l-5-1.18" stroke="#614f36" fill="none"/><path d="M879.5 529.5v1l-.6-.13.22-.98z" fill="#614f36"/><path d="M628.68 459.67l-19.1 5.9 14.38 13.9" stroke="#614f36" fill="none"/><use xlink:href="#j" transform="matrix(1,0,0,1,733.9697560714295,476.4986970526903) translate(0 14.222222222222223)"/><path d="M760 720c0 33.14-53.73 60-120 60-66.27 0-120-26.86-120-60s53.73-60 120-60c66.27 0 120 26.86 120 60z" stroke="#333" fill="#fff"/><use xlink:href="#k" transform="matrix(1,0,0,1,556,684) translate(25.099999999999994 39.6)"/><use xlink:href="#g" transform="matrix(1,0,0,1,556,684) translate(94 39.6)"/><path d="M261.02 710.02h.08c.1-2.76 2.43-4.9 5.2-4.8 2.74.1 4.9 2.43 4.8 5.2l247.9 9.56M261.03 710.02l-3.5-.14" stroke="#614f36" fill="none"/><path d="M519.5 719.5v1l-.53-.02.04-1z" fill="#614f36"/><path d="M1140 710c0 33.14-53.73 60-120 60-66.27 0-120-26.86-120-60s53.73-60 120-60c66.27 0 120 26.86 120 60z" stroke="#333" fill="#fff"/><use xlink:href="#e" transform="matrix(1,0,0,1,936,674) translate(21.525 28.799999999999997)"/><use xlink:href="#l" transform="matrix(1,0,0,1,936,674) translate(5.625 50.4)"/><use xlink:href="#m" transform="matrix(1,0,0,1,936,674) translate(74.525 50.4)"/><path d="M1120 853.35c0 33.14-53.73 60-120 60-66.27 0-120-26.86-120-60s53.73-60 120-60c66.27 0 120 26.86 120 60z" stroke="#333" fill="#fff"/><use xlink:href="#e" transform="matrix(1,0,0,1,916,817.3499999999999) translate(21.525 18)"/><use xlink:href="#l" transform="matrix(1,0,0,1,916,817.3499999999999) translate(18.57499999999999 39.6)"/><use xlink:href="#n" transform="matrix(1,0,0,1,916,817.3499999999999) translate(87.475 39.6)"/><use xlink:href="#o" transform="matrix(1,0,0,1,916,817.3499999999999) translate(62.5 61.2)"/><path d="M840 940c0 33.14-53.73 60-120 60-66.27 0-120-26.86-120-60s53.73-60 120-60c66.27 0 120 26.86 120 60z" stroke="#333" fill="#fff"/><use xlink:href="#e" transform="matrix(1,0,0,1,636,904) translate(21.525 18)"/><use xlink:href="#l" transform="matrix(1,0,0,1,636,904) translate(16.07499999999999 39.6)"/><use xlink:href="#p" transform="matrix(1,0,0,1,636,904) translate(84.975 39.6)"/><use xlink:href="#q" transform="matrix(1,0,0,1,636,904) translate(33.575 61.2)"/><use xlink:href="#r" transform="matrix(1,0,0,1,636,904) translate(91.525 61.2)"/><path d="M761 719.88l5-1.22m5-1.22l10.02-2.45m5-1.23l10.02-2.44m5-1.22l10.02-2.44m5-1.22L826.1 704m5-1.22l10-2.45m5.02-1.22l10-2.43m5.02-1.22l10.02-2.45m5-1.22l10.02-2.44m5-1.22l10.02-2.45m5-1.22l5.02-1.22" stroke="#614f36" fill="none"/><path d="M761.12 720.36l-.63.16v-1.02l.38-.1z" fill="#614f36"/><path d="M896.84 697.22l14.3-13.97-19.13-5.8" stroke="#614f36" fill="none"/><g><use xlink:href="#s" transform="matrix(1,0,0,1,802.2250079671007,707.4225539111222) translate(0 14.222222222222223)"/></g><path d="M731.42 759.96l4.1 2.58m4.08 2.58l8.2 5.16m4.08 2.58l8.18 5.17m4.1 2.58l8.18 5.17m4.1 2.58l8.17 5.16m4.1 2.6l8.2 5.15m4.08 2.58l8.2 5.16m4.08 2.57l8.18 5.17m4.1 2.58l8.18 5.16m4.1 2.58l8.17 5.16m4.1 2.58l8.17 5.16m4.1 2.58l8.18 5.16m4.1 2.58l4.08 2.6" stroke="#614f36" fill="none"/><path d="M731.7 759.55l-.54.84-.67-.43.5-.27.47-.3z" fill="#614f36"/><path d="M858.68 852.25l20 .58-9.14-17.8" stroke="#614f36" fill="none"/><g><use xlink:href="#s" transform="matrix(1,0,0,1,703.8011330242307,801.40995258802) translate(0 14.222222222222223)"/></g><path d="M640.26 780.93l2.46 4.1m2.47 4.12l4.92 8.23m2.46 4.1l4.93 8.23m2.48 4.12l4.93 8.23m2.47 4.1l4.93 8.23m2.47 4.1l4.93 8.24m2.46 4.1l4.93 8.23m2.46 4.1l4.93 8.24m2.46 4.1l2.46 4.1" stroke="#614f36" fill="none"/><path d="M640 780.5h.58l.1.18-.85.52-.42-.7z" fill="#614f36"/><path d="M681.8 870.02l17.58 9.53-.12-20" stroke="#614f36" fill="none"/><g><use xlink:href="#s" transform="matrix(1,0,0,1,564.933309692399,822.0198050065111) translate(0 14.222222222222223)"/></g><path d="M720 1094.55c0 33.13-53.73 60-120 60-66.27 0-120-26.87-120-60 0-33.14 53.73-60 120-60 66.27 0 120 26.86 120 60z" stroke="#333" fill="#fff"/><g><use xlink:href="#t" transform="matrix(1,0,0,1,516,1058.5461079259746) translate(28.575000000000003 39.6)"/><use xlink:href="#g" transform="matrix(1,0,0,1,516,1058.5461079259746) translate(90.525 39.6)"/></g><path d="M260.85 710.37c1.95-1.72 4.94-1.53 6.66.42 1.74 1.95 1.55 4.93-.4 6.65l283.68 321.43M260.86 710.38l-2.33-2.63" stroke="#614f36" fill="none"/><path d="M551.68 1039.14l-1.13.24-.15-.18.75-.66z" fill="#614f36"/><defs><path fill="#614f36" d="M161-211c-63 0-91 46-91 110 0 39 17 65 58 64 38-1 60-20 74-45l40 20C220-23 184 0 125 4 9 13-10-144 57-208c33-50 166-62 196-1 4 8 9 18 11 27l-48 12c-6-24-25-41-55-41" id="u"/><path fill="#614f36" d="M124-194c51 0 84 22 84 74C207-44 167 4 94 4 43 4 11-23 11-74c0-74 41-120 113-120zM99-30c46 0 58-42 58-86 0-27-11-44-37-44-44 0-55 40-57 84-1 27 10 45 36 46" id="v"/><path fill="#614f36" d="M128 0L95-87 70-74 55 0H6l51-261h49L77-111l82-79h56l-83 74L180 0h-52" id="w"/><path fill="#614f36" d="M50-224l7-37h49l-7 37H50zM6 0l37-190h49L55 0H6" id="x"/><path fill="#614f36" d="M151-194c95 0 34 128 28 194h-49l25-134c0-29-45-25-59-9C67-111 69-48 56 0H6l36-190h47l-4 32c15-20 33-36 66-36" id="y"/><path fill="#614f36" d="M45-171c29-32 103-29 114 14 2-11 5-23 8-33h47L176-2c-3 70-92 96-155 64C9 56 1 42-1 25l50-5c2 28 48 27 63 11 13-13 20-45 21-66-13 20-30 35-62 36-87 3-60-134-26-172zM94-35c41-3 55-43 55-86 0-24-12-39-35-39-43 0-51 48-51 90 0 22 9 37 31 35" id="z"/><g id="a"><use transform="matrix(0.06172839506172839,0,0,0.06172839506172839,0,0)" xlink:href="#u"/><use transform="matrix(0.06172839506172839,0,0,0.06172839506172839,15.987654320987653,0)" xlink:href="#v"/><use transform="matrix(0.06172839506172839,0,0,0.06172839506172839,29.50617283950617,0)" xlink:href="#v"/><use transform="matrix(0.06172839506172839,0,0,0.06172839506172839,43.02469135802469,0)" xlink:href="#w"/><use transform="matrix(0.06172839506172839,0,0,0.06172839506172839,55.37037037037037,0)" xlink:href="#x"/><use transform="matrix(0.06172839506172839,0,0,0.06172839506172839,61.54320987654321,0)" xlink:href="#y"/><use transform="matrix(0.06172839506172839,0,0,0.06172839506172839,75.06172839506172,0)" xlink:href="#z"/></g><g id="b"><use transform="matrix(0.06172839506172839,0,0,0.06172839506172839,0,0)" xlink:href="#v"/><use transform="matrix(0.06172839506172839,0,0,0.06172839506172839,13.518518518518517,0)" xlink:href="#y"/></g><path fill="#614f36" d="M98-208l-15 77h118l-8 40H76L58 0H6l48-248h174l-8 40H98" id="A"/><path fill="#614f36" d="M84-151c13-25 34-51 72-40l-8 41C67-170 71-64 56 0H6l36-190h47" id="B"/><path fill="#614f36" d="M114-194c63-2 87 48 72 110H63c-3 28 1 55 31 54 21-1 32-13 37-29l44 13C160-14 137 4 91 4 41 4 11-22 11-73c0-71 33-119 103-121zm30 77c14-47-50-61-67-22-3 6-6 13-8 22h75" id="C"/><g id="c"><use transform="matrix(0.06172839506172839,0,0,0.06172839506172839,0,0)" xlink:href="#A"/><use transform="matrix(0.06172839506172839,0,0,0.06172839506172839,13.518518518518517,0)" xlink:href="#x"/><use transform="matrix(0.06172839506172839,0,0,0.06172839506172839,19.691358024691358,0)" xlink:href="#B"/><use transform="matrix(0.06172839506172839,0,0,0.06172839506172839,28.333333333333332,0)" xlink:href="#C"/></g><path fill="#614f36" d="M125-24c46 0 70-25 89-51l25 16C214-24 183 4 123 4 8 4-5-146 60-208c32-50 158-61 191-5 5 7 9 14 11 22l-32 10c-9-28-33-43-69-43-74 0-108 51-108 125 0 46 24 75 72 75" id="D"/><path fill="#614f36" d="M30-147c31-64 166-65 159 27C183-49 158 1 86 4 9 8 1-88 30-147zM88-20c53 0 68-48 68-100 0-31-11-51-44-50-52 1-68 46-68 97 0 32 13 53 44 53" id="E"/><path fill="#614f36" d="M127 0L80-88 50-66 37 0H6l51-261h31L57-100l99-90h39l-93 82L161 0h-34" id="F"/><g id="d"><use transform="matrix(0.04938271604938272,0,0,0.04938271604938272,0,0)" xlink:href="#D"/><use transform="matrix(0.04938271604938272,0,0,0.04938271604938272,12.790123456790125,0)" xlink:href="#E"/><use transform="matrix(0.04938271604938272,0,0,0.04938271604938272,22.66666666666667,0)" xlink:href="#E"/><use transform="matrix(0.04938271604938272,0,0,0.04938271604938272,32.543209876543216,0)" xlink:href="#F"/></g><path fill="#614f36" d="M18-100v-36l175-74v27L42-118l151 64v27" id="G"/><path fill="#614f36" d="M135-143c-3-34-86-38-87 0 15 53 115 12 119 90S17 21 10-45l28-5c4 36 97 45 98 0-10-56-113-15-118-90-4-57 82-63 122-42 12 7 21 19 24 35" id="H"/><path fill="#614f36" d="M100-194c63 0 86 42 84 106H49c0 40 14 67 53 68 26 1 43-12 49-29l28 8c-11 28-37 45-77 45C44 4 14-33 15-96c1-61 26-98 85-98zm52 81c6-60-76-77-97-28-3 7-6 17-6 28h103" id="I"/><path fill="#614f36" d="M96-169c-40 0-48 33-48 73s9 75 48 75c24 0 41-14 43-38l32 2c-6 37-31 61-74 61-59 0-76-41-82-99-10-93 101-131 147-64 4 7 5 14 7 22l-32 3c-4-21-16-35-41-35" id="J"/><path fill="#614f36" d="M100-194c62-1 85 37 85 99 1 63-27 99-86 99S16-35 15-95c0-66 28-99 85-99zM99-20c44 1 53-31 53-75 0-43-8-75-51-75s-53 32-53 75 10 74 51 75" id="K"/><path fill="#614f36" d="M117-194c89-4 53 116 60 194h-32v-121c0-31-8-49-39-48C34-167 62-67 57 0H25l-1-190h30c1 10-1 24 2 32 11-22 29-35 61-36" id="L"/><path fill="#614f36" d="M85-194c31 0 48 13 60 33l-1-100h32l1 261h-30c-2-10 0-23-3-31C134-8 116 4 85 4 32 4 16-35 15-94c0-66 23-100 70-100zm9 24c-40 0-46 34-46 75 0 40 6 74 45 74 42 0 51-32 51-76 0-42-9-74-50-73" id="M"/><path fill="#614f36" d="M141-36C126-15 110 5 73 4 37 3 15-17 15-53c-1-64 63-63 125-63 3-35-9-54-41-54-24 1-41 7-42 31l-33-3c5-37 33-52 76-52 45 0 72 20 72 64v82c-1 20 7 32 28 27v20c-31 9-61-2-59-35zM48-53c0 20 12 33 32 33 41-3 63-29 60-74-43 2-92-5-92 41" id="N"/><path fill="#614f36" d="M114-163C36-179 61-72 57 0H25l-1-190h30c1 12-1 29 2 39 6-27 23-49 58-41v29" id="O"/><path fill="#614f36" d="M179-190L93 31C79 59 56 82 12 73V49c39 6 53-20 64-50L1-190h34L92-34l54-156h33" id="P"/><path fill="#614f36" d="M18-27v-27l151-64-151-65v-27l175 74v36" id="Q"/><g id="e"><use transform="matrix(0.05,0,0,0.05,0,0)" xlink:href="#G"/><use transform="matrix(0.05,0,0,0.05,10.5,0)" xlink:href="#G"/><use transform="matrix(0.05,0,0,0.05,21,0)" xlink:href="#H"/><use transform="matrix(0.05,0,0,0.05,30,0)" xlink:href="#I"/><use transform="matrix(0.05,0,0,0.05,40,0)" xlink:href="#J"/><use transform="matrix(0.05,0,0,0.05,49,0)" xlink:href="#K"/><use transform="matrix(0.05,0,0,0.05,59,0)" xlink:href="#L"/><use transform="matrix(0.05,0,0,0.05,69,0)" xlink:href="#M"/><use transform="matrix(0.05,0,0,0.05,79,0)" xlink:href="#N"/><use transform="matrix(0.05,0,0,0.05,89,0)" xlink:href="#O"/><use transform="matrix(0.05,0,0,0.05,94.95,0)" xlink:href="#P"/><use transform="matrix(0.05,0,0,0.05,103.95,0)" xlink:href="#Q"/><use transform="matrix(0.05,0,0,0.05,114.45,0)" xlink:href="#Q"/></g><path fill="#614f36" d="M30-248c118-7 216 8 213 122C240-48 200 0 122 0H30v-248zM63-27c89 8 146-16 146-99s-60-101-146-95v194" id="R"/><path fill="#614f36" d="M24 0v-261h32V0H24" id="S"/><path fill="#614f36" d="M59-47c-2 24 18 29 38 22v24C64 9 27 4 27-40v-127H5v-23h24l9-43h21v43h35v23H59v120" id="T"/><g id="f"><use transform="matrix(0.05,0,0,0.05,0,0)" xlink:href="#R"/><use transform="matrix(0.05,0,0,0.05,12.950000000000001,0)" xlink:href="#I"/><use transform="matrix(0.05,0,0,0.05,22.950000000000003,0)" xlink:href="#S"/><use transform="matrix(0.05,0,0,0.05,26.900000000000002,0)" xlink:href="#I"/><use transform="matrix(0.05,0,0,0.05,36.900000000000006,0)" xlink:href="#T"/><use transform="matrix(0.05,0,0,0.05,41.900000000000006,0)" xlink:href="#I"/></g><path fill="#614f36" d="M24-231v-30h32v30H24zM24 0v-190h32V0H24" id="U"/><path fill="#614f36" d="M115-194c55 1 70 41 70 98S169 2 115 4C84 4 66-9 55-30l1 105H24l-1-265h31l2 30c10-21 28-34 59-34zm-8 174c40 0 45-34 45-75s-6-73-45-74c-42 0-51 32-51 76 0 43 10 73 51 73" id="V"/><g id="g"><use transform="matrix(0.05,0,0,0.05,0,0)" xlink:href="#O"/><use transform="matrix(0.05,0,0,0.05,5.95,0)" xlink:href="#I"/><use transform="matrix(0.05,0,0,0.05,15.949999999999998,0)" xlink:href="#J"/><use transform="matrix(0.05,0,0,0.05,24.95,0)" xlink:href="#U"/><use transform="matrix(0.05,0,0,0.05,28.899999999999995,0)" xlink:href="#V"/><use transform="matrix(0.05,0,0,0.05,38.9,0)" xlink:href="#I"/></g><path fill="#614f36" d="M185-189c-5-48-123-54-124 2 14 75 158 14 163 119 3 78-121 87-175 55-17-10-28-26-33-46l33-7c5 56 141 63 141-1 0-78-155-14-162-118-5-82 145-84 179-34 5 7 8 16 11 25" id="W"/><g id="h"><use transform="matrix(0.05,0,0,0.05,0,0)" xlink:href="#W"/><use transform="matrix(0.05,0,0,0.05,12,0)" xlink:href="#I"/><use transform="matrix(0.05,0,0,0.05,22,0)" xlink:href="#S"/><use transform="matrix(0.05,0,0,0.05,25.950000000000003,0)" xlink:href="#I"/><use transform="matrix(0.05,0,0,0.05,35.95,0)" xlink:href="#J"/><use transform="matrix(0.05,0,0,0.05,44.95,0)" xlink:href="#T"/></g><path fill="#614f36" d="M205 0l-28-72H64L36 0H1l101-248h38L239 0h-34zm-38-99l-47-123c-12 45-31 82-46 123h93" id="X"/><g id="i"><use transform="matrix(0.05,0,0,0.05,0,0)" xlink:href="#X"/><use transform="matrix(0.05,0,0,0.05,12,0)" xlink:href="#M"/><use transform="matrix(0.05,0,0,0.05,22,0)" xlink:href="#N"/><use transform="matrix(0.05,0,0,0.05,32,0)" xlink:href="#V"/><use transform="matrix(0.05,0,0,0.05,42,0)" xlink:href="#T"/></g><path fill="#614f36" d="M23-100v-36l175-74v27L47-118l151 64v27" id="Y"/><path fill="#614f36" d="M111-194c62-3 86 47 72 106H45c-7 38 6 69 45 68 27-1 43-14 53-32l24 11C152-15 129 4 87 4 38 3 12-23 12-71c0-70 32-119 99-123zm44 81c14-66-71-72-95-28-4 8-8 17-11 28h106" id="Z"/><path fill="#614f36" d="M124 0L87-78 21 0h-35l86-98-46-92h33l34 74 61-74h37l-83 92 50 98h-34" id="aa"/><path fill="#614f36" d="M51-54c-9 22 5 41 31 30L79-1C43 14 10-4 19-52l22-115H19l5-23h22l19-43h21l-9 43h35l-4 23H73" id="ab"/><path fill="#614f36" d="M67-158c22-48 132-52 116 29L158 0h-32l25-140c3-38-53-32-70-12C52-117 51-52 38 0H6l36-190h30" id="ac"/><path fill="#614f36" d="M133-28C103 26-5 8 13-77c13-62 24-115 90-117 29-1 46 15 56 35l19-102h32L160 0h-30zM45-64c-2 27 10 43 35 43 54-1 69-50 69-103 0-29-15-46-42-46-53-1-58 58-62 106" id="ad"/><path fill="#614f36" d="M55-144c13 50 104 24 104 88C159 21 15 23 1-39l26-10c6 40 102 42 102-4-13-50-104-23-104-87 0-71 143-71 148-8l-29 4c-5-35-85-37-89 0" id="ae"/><path fill="#614f36" d="M23-27v-27l151-64-151-65v-27l175 74v36" id="af"/><g id="j"><use transform="matrix(0.04938271604938272,0,0,0.04938271604938272,0,0)" xlink:href="#Y"/><use transform="matrix(0.04938271604938272,0,0,0.04938271604938272,10.370370370370372,0)" xlink:href="#Y"/><use transform="matrix(0.04938271604938272,0,0,0.04938271604938272,20.740740740740744,0)" xlink:href="#Z"/><use transform="matrix(0.04938271604938272,0,0,0.04938271604938272,30.617283950617285,0)" xlink:href="#aa"/><use transform="matrix(0.04938271604938272,0,0,0.04938271604938272,39.50617283950618,0)" xlink:href="#ab"/><use transform="matrix(0.04938271604938272,0,0,0.04938271604938272,44.44444444444445,0)" xlink:href="#Z"/><use transform="matrix(0.04938271604938272,0,0,0.04938271604938272,54.320987654320994,0)" xlink:href="#ac"/><use transform="matrix(0.04938271604938272,0,0,0.04938271604938272,64.19753086419755,0)" xlink:href="#ad"/><use transform="matrix(0.04938271604938272,0,0,0.04938271604938272,74.07407407407409,0)" xlink:href="#ae"/><use transform="matrix(0.04938271604938272,0,0,0.04938271604938272,82.96296296296298,0)" xlink:href="#af"/><use transform="matrix(0.04938271604938272,0,0,0.04938271604938272,93.33333333333334,0)" xlink:href="#af"/></g><path fill="#614f36" d="M212-179c-10-28-35-45-73-45-59 0-87 40-87 99 0 60 29 101 89 101 43 0 62-24 78-52l27 14C228-24 195 4 139 4 59 4 22-46 18-125c-6-104 99-153 187-111 19 9 31 26 39 46" id="ag"/><path fill="#614f36" d="M84 4C-5 8 30-112 23-190h32v120c0 31 7 50 39 49 72-2 45-101 50-169h31l1 190h-30c-1-10 1-25-2-33-11 22-28 36-60 37" id="ah"/><g id="k"><use transform="matrix(0.05,0,0,0.05,0,0)" xlink:href="#ag"/><use transform="matrix(0.05,0,0,0.05,12.950000000000001,0)" xlink:href="#N"/><use transform="matrix(0.05,0,0,0.05,22.950000000000003,0)" xlink:href="#V"/><use transform="matrix(0.05,0,0,0.05,32.95,0)" xlink:href="#T"/><use transform="matrix(0.05,0,0,0.05,37.95,0)" xlink:href="#ah"/><use transform="matrix(0.05,0,0,0.05,47.95,0)" xlink:href="#O"/><use transform="matrix(0.05,0,0,0.05,53.900000000000006,0)" xlink:href="#I"/></g><g id="l"><use transform="matrix(0.05,0,0,0.05,0,0)" xlink:href="#ag"/><use transform="matrix(0.05,0,0,0.05,12.950000000000001,0)" xlink:href="#N"/><use transform="matrix(0.05,0,0,0.05,22.950000000000003,0)" xlink:href="#V"/><use transform="matrix(0.05,0,0,0.05,32.95,0)" xlink:href="#T"/><use transform="matrix(0.05,0,0,0.05,37.95,0)" xlink:href="#ah"/><use transform="matrix(0.05,0,0,0.05,47.95,0)" xlink:href="#O"/><use transform="matrix(0.05,0,0,0.05,53.900000000000006,0)" xlink:href="#I"/></g><path fill="#614f36" d="M177-190C167-65 218 103 67 71c-23-6-38-20-44-43l32-5c15 47 100 32 89-28v-30C133-14 115 1 83 1 29 1 15-40 15-95c0-56 16-97 71-98 29-1 48 16 59 35 1-10 0-23 2-32h30zM94-22c36 0 50-32 50-73 0-42-14-75-50-75-39 0-46 34-46 75s6 73 46 73" id="ai"/><g id="m"><use transform="matrix(0.05,0,0,0.05,0,0)" xlink:href="#U"/><use transform="matrix(0.05,0,0,0.05,3.95,0)" xlink:href="#L"/><use transform="matrix(0.05,0,0,0.05,13.949999999999998,0)" xlink:href="#ai"/><use transform="matrix(0.05,0,0,0.05,23.95,0)" xlink:href="#O"/><use transform="matrix(0.05,0,0,0.05,29.899999999999995,0)" xlink:href="#I"/><use transform="matrix(0.05,0,0,0.05,39.9,0)" xlink:href="#M"/><use transform="matrix(0.05,0,0,0.05,49.9,0)" xlink:href="#U"/><use transform="matrix(0.05,0,0,0.05,53.85,0)" xlink:href="#I"/><use transform="matrix(0.05,0,0,0.05,63.85,0)" xlink:href="#L"/><use transform="matrix(0.05,0,0,0.05,73.85,0)" xlink:href="#T"/><use transform="matrix(0.05,0,0,0.05,78.85,0)" xlink:href="#H"/></g><path fill="#614f36" d="M143 0L79-87 56-68V0H24v-261h32v163l83-92h37l-77 82L181 0h-38" id="aj"/><g id="n"><use transform="matrix(0.05,0,0,0.05,0,0)" xlink:href="#J"/><use transform="matrix(0.05,0,0,0.05,9,0)" xlink:href="#K"/><use transform="matrix(0.05,0,0,0.05,19,0)" xlink:href="#K"/><use transform="matrix(0.05,0,0,0.05,29,0)" xlink:href="#aj"/><use transform="matrix(0.05,0,0,0.05,38,0)" xlink:href="#U"/><use transform="matrix(0.05,0,0,0.05,41.95,0)" xlink:href="#L"/><use transform="matrix(0.05,0,0,0.05,51.95,0)" xlink:href="#ai"/></g><g id="o"><use transform="matrix(0.05,0,0,0.05,0,0)" xlink:href="#H"/><use transform="matrix(0.05,0,0,0.05,9,0)" xlink:href="#T"/><use transform="matrix(0.05,0,0,0.05,14,0)" xlink:href="#I"/><use transform="matrix(0.05,0,0,0.05,24,0)" xlink:href="#V"/><use transform="matrix(0.05,0,0,0.05,34,0)" xlink:href="#H"/></g><path fill="#614f36" d="M0 4l72-265h28L28 4H0" id="ak"/><g id="p"><use transform="matrix(0.05,0,0,0.05,0,0)" xlink:href="#J"/><use transform="matrix(0.05,0,0,0.05,9,0)" xlink:href="#K"/><use transform="matrix(0.05,0,0,0.05,19,0)" xlink:href="#K"/><use transform="matrix(0.05,0,0,0.05,29,0)" xlink:href="#aj"/><use transform="matrix(0.05,0,0,0.05,38,0)" xlink:href="#U"/><use transform="matrix(0.05,0,0,0.05,41.95,0)" xlink:href="#L"/><use transform="matrix(0.05,0,0,0.05,51.95,0)" xlink:href="#ai"/><use transform="matrix(0.05,0,0,0.05,61.95,0)" xlink:href="#ak"/></g><path fill="#614f36" d="M115-194c53 0 69 39 70 98 0 66-23 100-70 100C84 3 66-7 56-30L54 0H23l1-261h32v101c10-23 28-34 59-34zm-8 174c40 0 45-34 45-75 0-40-5-75-45-74-42 0-51 32-51 76 0 43 10 73 51 73" id="al"/><g id="q"><use transform="matrix(0.05,0,0,0.05,0,0)" xlink:href="#al"/><use transform="matrix(0.05,0,0,0.05,10,0)" xlink:href="#N"/><use transform="matrix(0.05,0,0,0.05,20,0)" xlink:href="#aj"/><use transform="matrix(0.05,0,0,0.05,29,0)" xlink:href="#U"/><use transform="matrix(0.05,0,0,0.05,32.95,0)" xlink:href="#L"/><use transform="matrix(0.05,0,0,0.05,42.95,0)" xlink:href="#ai"/></g><path fill="#614f36" d="M210-169c-67 3-38 105-44 169h-31v-121c0-29-5-50-35-48C34-165 62-65 56 0H25l-1-190h30c1 10-1 24 2 32 10-44 99-50 107 0 11-21 27-35 58-36 85-2 47 119 55 194h-31v-121c0-29-5-49-35-48" id="am"/><g id="r"><use transform="matrix(0.05,0,0,0.05,0,0)" xlink:href="#T"/><use transform="matrix(0.05,0,0,0.05,5,0)" xlink:href="#U"/><use transform="matrix(0.05,0,0,0.05,8.95,0)" xlink:href="#am"/><use transform="matrix(0.05,0,0,0.05,23.9,0)" xlink:href="#I"/><use transform="matrix(0.05,0,0,0.05,33.9,0)" xlink:href="#H"/></g><path fill="#614f36" d="M50-231l6-30h32l-6 30H50zM6 0l37-190h31L37 0H6" id="an"/><path fill="#614f36" d="M44-68c0 29 11 47 38 47 30 0 42-19 51-41l28 9C148-21 126 4 82 4 31 4 10-29 12-85c3-77 74-140 146-93 12 8 15 23 18 40l-31 5c-1-22-13-36-36-36-52 0-65 49-65 101" id="ao"/><path fill="#614f36" d="M6 0l50-261h32L37 0H6" id="ap"/><path fill="#614f36" d="M67 3c-93-2-31-127-26-193h32L48-50c-3 39 53 32 70 12 30-34 30-101 43-152h32L157 0h-30c1-10 6-24 4-33-14 20-29 37-64 36" id="aq"/><g id="s"><use transform="matrix(0.04938271604938272,0,0,0.04938271604938272,0,0)" xlink:href="#Y"/><use transform="matrix(0.04938271604938272,0,0,0.04938271604938272,10.370370370370372,0)" xlink:href="#Y"/><use transform="matrix(0.04938271604938272,0,0,0.04938271604938272,20.740740740740744,0)" xlink:href="#an"/><use transform="matrix(0.04938271604938272,0,0,0.04938271604938272,24.641975308641978,0)" xlink:href="#ac"/><use transform="matrix(0.04938271604938272,0,0,0.04938271604938272,34.51851851851852,0)" xlink:href="#ao"/><use transform="matrix(0.04938271604938272,0,0,0.04938271604938272,43.407407407407405,0)" xlink:href="#ap"/><use transform="matrix(0.04938271604938272,0,0,0.04938271604938272,47.30864197530864,0)" xlink:href="#aq"/><use transform="matrix(0.04938271604938272,0,0,0.04938271604938272,57.185185185185176,0)" xlink:href="#ad"/><use transform="matrix(0.04938271604938272,0,0,0.04938271604938272,67.06172839506172,0)" xlink:href="#Z"/><use transform="matrix(0.04938271604938272,0,0,0.04938271604938272,76.93827160493827,0)" xlink:href="#af"/><use transform="matrix(0.04938271604938272,0,0,0.04938271604938272,87.30864197530863,0)" xlink:href="#af"/></g><path fill="#614f36" d="M106-169C34-169 62-67 57 0H25v-261h32l-1 103c12-21 28-36 61-36 89 0 53 116 60 194h-32v-121c2-32-8-49-39-48" id="ar"/><g id="t"><use transform="matrix(0.05,0,0,0.05,0,0)" xlink:href="#W"/><use transform="matrix(0.05,0,0,0.05,12,0)" xlink:href="#I"/><use transform="matrix(0.05,0,0,0.05,22,0)" xlink:href="#N"/><use transform="matrix(0.05,0,0,0.05,32,0)" xlink:href="#O"/><use transform="matrix(0.05,0,0,0.05,37.95,0)" xlink:href="#J"/><use transform="matrix(0.05,0,0,0.05,46.95,0)" xlink:href="#ar"/></g></defs></g></svg>
